<svg width="818" height="563" viewBox="0 0 818 563" fill="none" xmlns="http://www.w3.org/2000/svg">
<g id="working-in-office">
<g id="Group">
<path id="Vector" d="M788.892 184.319H630.223C622.461 184.319 616.069 178.042 616.069 170.167V77.7222C616.069 69.9614 622.347 63.5701 630.223 63.5701H788.892C796.654 63.5701 803.047 69.8472 803.047 77.7222V170.167C802.933 178.042 796.654 184.319 788.892 184.319Z" fill="#2847E0"/>
<path id="Vector_2" d="M313.685 178.384H142.346C133.784 178.384 126.821 171.422 126.821 162.863V59.8039C126.821 51.2442 133.784 44.2823 142.346 44.2823H313.685C322.246 44.2823 329.209 51.2442 329.209 59.8039V162.863C329.209 171.422 322.246 178.384 313.685 178.384Z" fill="#172D51"/>
<path id="Vector_3" d="M208.895 342.16H37.6699C29.1087 342.16 22.1455 335.198 22.1455 326.638V222.895C22.1455 214.335 29.1087 207.373 37.6699 207.373H208.895C217.456 207.373 224.42 214.335 224.42 222.895V326.638C224.42 335.312 217.456 342.16 208.895 342.16Z" fill="#2847E0"/>
<path id="Vector_4" fill-rule="evenodd" clip-rule="evenodd" d="M477.605 368.295C477.034 365.899 476.92 362.703 476.92 358.252C470.185 358.366 470.641 368.295 477.148 368.295H477.605ZM476.806 354.714H499.978C499.978 365.67 500.092 370.578 496.097 372.861H480.687C479.545 372.176 478.632 371.263 478.175 369.893H477.148C468.701 369.893 468.244 356.997 476.92 356.54L476.806 354.714Z" fill="#4C4C4C"/>
<path id="Vector_5" d="M123.854 416.914V444.762C139.15 452.295 179.787 443.278 179.787 443.278L211.521 437.686L213.576 521.343L213.69 525.794L213.918 536.75L214.146 548.277H260.263C260.149 543.027 253.871 539.033 248.734 536.864C246.793 536.066 244.967 535.495 243.597 535.267C238.917 534.354 237.89 526.022 237.89 526.022V525.794L238.346 521.343L247.364 443.278L265.97 459.371L267.911 455.49L274.303 460.968L274.418 461.083L282.066 467.702L291.426 475.805L321.219 440.768C317.566 436.659 310.831 437.914 304.667 440.425C297.59 443.278 291.198 447.844 291.198 447.844L286.632 442.708L286.289 442.365L279.783 435.175L224.306 373.203L123.854 416.914Z" fill="#191919"/>
<path id="Vector_6" d="M280.011 435.175L268.025 455.49L274.532 461.083L286.404 442.365L280.011 435.175Z" fill="#FAA895"/>
<path id="Vector_7" d="M213.461 521.343L213.575 525.794H238.003L238.46 521.343H213.461Z" fill="#FAA895"/>
<path id="Vector_8" d="M213.804 536.75L214.032 548.277H260.263C260.149 543.028 253.87 539.033 248.734 536.865C243.825 538.12 236.634 540.631 236.634 544.511H222.593C222.593 544.511 219.511 537.663 213.804 536.75Z" fill="#6B3903"/>
<path id="Vector_9" d="M282.864 468.273L291.768 475.577L321.789 441.11C308.89 434.49 300.672 453.094 303.525 456.289L294.393 466.789C294.279 466.789 287.202 464.621 282.864 468.273Z" fill="#6B3903"/>
<path id="Vector_10" d="M173.965 390.322C174.878 389.295 176.933 369.665 176.134 368.41" stroke="black" stroke-width="0.88" stroke-miterlimit="10"/>
<path id="Vector_11" d="M173.394 548.163C177.492 548.163 180.814 544.842 180.814 540.745C180.814 536.648 177.492 533.327 173.394 533.327C169.297 533.327 165.975 536.648 165.975 540.745C165.975 544.842 169.297 548.163 173.394 548.163Z" fill="#6B3903"/>
<path id="Vector_12" d="M155.245 548.163C159.343 548.163 162.665 544.842 162.665 540.745C162.665 536.648 159.343 533.327 155.245 533.327C151.147 533.327 147.825 536.648 147.825 540.745C147.825 544.842 151.147 548.163 155.245 548.163Z" fill="#6B3903"/>
<path id="Vector_13" d="M137.095 548.163C141.192 548.163 144.514 544.842 144.514 540.745C144.514 536.648 141.192 533.327 137.095 533.327C132.997 533.327 129.675 536.648 129.675 540.745C129.675 544.842 132.997 548.163 137.095 548.163Z" fill="#6B3903"/>
<path id="Vector_14" d="M119.059 548.163C123.157 548.163 126.479 544.842 126.479 540.745C126.479 536.648 123.157 533.327 119.059 533.327C114.962 533.327 111.64 536.648 111.64 540.745C111.64 544.842 114.962 548.163 119.059 548.163Z" fill="#6B3903"/>
<path id="Vector_15" d="M192.458 464.05L185.266 468.729H153.533V526.365H177.733V533.441H114.95V526.365H139.492V468.045H108.558L102.279 464.05H192.458Z" fill="#331A02"/>
<path id="Vector_16" d="M102.279 464.05H192.458V455.148C192.458 448.985 187.549 444.077 181.385 444.077H113.352C107.188 444.077 102.279 448.985 102.279 455.148V464.05Z" fill="#6B3903"/>
<path id="Vector_17" d="M211.064 347.296C218.255 347.296 240.286 349.35 222.136 322.872C222.365 319.22 223.963 308.378 215.63 303.584C207.297 298.791 210.379 295.937 211.064 293.655C211.749 291.372 214.032 257.476 169.399 259.53C164.833 260.443 147.482 263.639 149.08 288.976C150.678 314.312 150.678 322.644 150.678 322.644L211.064 347.296Z" fill="#021D4E"/>
<path id="Vector_18" d="M268.253 337.138C268.253 337.138 283.778 334.627 285.604 327.665C285.604 327.665 288.344 324.356 285.604 322.301C285.604 322.301 284.577 319.448 282.522 319.448C280.468 319.448 259.692 322.986 256.838 322.301C253.985 321.617 253.3 339.535 253.3 339.535L268.253 337.138Z" fill="#E08F82"/>
<path id="Vector_19" d="M271.107 326.068L285.262 322.416" stroke="#BC5E63" stroke-miterlimit="10" stroke-linecap="round"/>
<path id="Vector_20" d="M285.148 328.008C285.148 328.008 285.033 324.584 283.778 325.269C282.294 326.068 280.81 327.551 280.125 327.894C278.527 328.578 275.787 330.29 274.988 330.519" stroke="#BC5E63" stroke-miterlimit="10" stroke-linecap="round"/>
<path id="Vector_21" d="M277.157 327.894C276.472 327.437 275.559 327.437 274.989 328.008C273.505 329.491 270.651 332.002 269.281 332.002C267.455 332.116 263.802 331.774 262.204 330.519C260.606 329.263 258.437 328.578 258.437 328.578C258.437 328.578 259.35 324.698 259.122 322.872C258.893 321.046 259.807 318.992 260.606 318.193C261.405 317.394 263.573 312.943 261.29 310.774C261.29 310.774 259.578 309.861 259.236 310.774C258.893 311.687 256.154 316.595 254.898 318.307C253.757 320.019 243.711 331.318 242.342 334.741C241.086 338.165 245.652 344.671 245.652 344.671L253.186 341.932C253.186 341.932 264.943 338.165 265.971 338.165C266.998 338.165 272.363 337.138 277.386 330.176C278.071 329.491 277.956 328.464 277.157 327.894Z" fill="#FAA895"/>
<path id="Vector_22" d="M253.3 342.046C252.615 343.301 242.113 361.904 235.949 373.089C229.557 384.73 220.767 382.219 217.114 380.393C213.69 378.681 196.91 362.817 194.741 360.763C194.627 360.649 194.512 360.535 194.512 360.535C190.061 373.203 177.047 369.323 177.047 369.323C175.678 377.083 179.901 392.491 179.901 392.491L123.968 416.8L134.241 364.986H104.105C95.0876 360.877 100.567 348.551 100.567 348.551C100.567 348.551 121.456 326.41 131.958 319.676C142.46 312.943 145.314 313.742 145.314 313.742C145.314 313.742 183.44 322.53 192.001 322.644C200.562 322.758 209.923 336.682 209.923 336.682L222.479 354.714L242.341 334.627C244.738 340.79 253.3 342.046 253.3 342.046Z" fill="#FF66F4"/>
<path id="Vector_23" d="M253.3 342.16C252.615 343.301 242.113 361.904 235.949 373.203C229.557 384.844 220.767 382.333 217.114 380.507C213.69 378.795 196.91 362.931 194.741 360.877C196.567 351.518 189.262 347.296 189.262 347.296C190.517 345.013 195.654 342.502 195.654 342.502C195.654 342.502 216.429 369.208 219.055 372.176C221.68 375.143 225.561 374.344 229.1 372.404C232.525 370.692 252.273 343.529 253.3 342.16Z" fill="#DB56D8"/>
<path id="Vector_24" d="M151.478 348.551C151.478 348.551 144.286 355.513 148.966 364.073L166.089 390.437C166.089 390.437 171.111 391.007 171.34 374.23L171.91 390.437C171.91 390.437 174.764 390.094 175.107 385.757C175.449 381.42 176.134 368.524 176.134 368.524C176.134 368.524 169.399 349.122 151.478 348.551Z" fill="#FAA895"/>
<path id="Vector_25" d="M151.478 348.551L121.913 347.296" stroke="black" stroke-miterlimit="10" stroke-linecap="round"/>
<path id="Vector_26" d="M147.14 340.79C147.14 340.79 136.067 343.986 133.556 347.752" stroke="black" stroke-miterlimit="10" stroke-linecap="round"/>
<path id="Vector_27" d="M112.438 419.882H152.619C160.039 419.882 166.089 413.833 166.089 406.415V377.54C166.089 370.122 160.039 364.073 152.619 364.073H112.438C105.019 364.073 98.9688 370.122 98.9688 377.54V406.301C98.9688 413.833 105.019 419.882 112.438 419.882Z" fill="#6B3903"/>
<path id="Vector_28" d="M119.858 414.061H127.849C133.671 414.061 138.237 409.382 138.237 403.676C138.237 397.855 133.556 393.29 127.849 393.29H119.858C114.037 393.29 109.471 397.969 109.471 403.676C109.357 409.382 114.037 414.061 119.858 414.061Z" fill="#824C17"/>
<path id="Vector_29" d="M120.086 460.74C122.94 460.74 125.223 458.458 125.223 455.604V405.844C125.223 402.991 122.94 400.708 120.086 400.708C117.232 400.708 114.949 402.991 114.949 405.844V455.604C114.949 458.458 117.232 460.74 120.086 460.74Z" fill="#331A02"/>
<path id="Vector_30" d="M191.887 323.329C196.909 340.106 171.34 334.285 164.947 330.519C158.555 326.752 145.313 313.856 145.313 313.856C156.728 313.285 159.011 314.084 161.523 315.34C164.034 316.595 166.774 316.481 167.915 315.34C169.171 314.198 169.856 301.416 169.856 301.416C161.18 301.872 162.893 298.106 162.893 296.166C162.893 294.111 164.947 294.111 164.947 294.111H167.002C175.906 294.111 173.965 274.938 173.965 274.938C190.517 273.796 193.713 281.329 194.284 290.345C195.425 310.204 183.097 307.008 183.097 307.008L182.184 318.992C187.891 322.758 191.887 323.329 191.887 323.329Z" fill="#FAA895"/>
<path id="Vector_31" d="M182.07 283.954C182.07 283.954 177.503 281.557 174.992 285.78" stroke="black" stroke-width="0.9205" stroke-miterlimit="10" stroke-linecap="round" stroke-linejoin="round"/>
<path id="Vector_32" d="M180.696 292.391C181.552 291.99 181.792 290.693 181.231 289.494C180.67 288.295 179.521 287.648 178.664 288.049C177.808 288.449 177.568 289.746 178.129 290.945C178.69 292.144 179.839 292.791 180.696 292.391Z" fill="black"/>
<path id="Vector_33" d="M190.416 287.298C191.102 286.977 191.289 285.931 190.835 284.96C190.381 283.989 189.457 283.462 188.772 283.783C188.087 284.103 187.899 285.15 188.353 286.121C188.808 287.091 189.731 287.618 190.416 287.298Z" fill="black"/>
<path id="Vector_34" d="M190.289 280.987C190.289 280.987 187.093 279.275 186.18 282.584" stroke="black" stroke-width="0.9477" stroke-miterlimit="10" stroke-linecap="round" stroke-linejoin="round"/>
<path id="Vector_35" d="M185.608 285.209C185.608 285.209 186.636 290.916 188.348 292.057C190.06 293.084 187.321 294.568 186.293 294.568" stroke="#BC5E63" stroke-miterlimit="10" stroke-linecap="round"/>
<path id="Vector_36" d="M188.577 299.704C185.609 300.731 184.011 298.677 184.011 298.677L191.202 296.28C191.202 296.28 192.115 298.448 188.577 299.704Z" fill="white"/>
<path id="Vector_37" d="M174.308 301.416C174.422 301.53 174.764 301.986 175.335 302.785C175.107 302.557 174.993 302.443 174.878 302.215C174.536 301.644 174.422 301.416 174.308 301.416Z" fill="#F99895"/>
<path id="Vector_38" d="M191.887 323.329C184.581 323.443 180.586 321.617 179.444 321.274C178.303 320.932 180.244 312.486 180.129 310.432C180.129 309.176 177.161 304.954 175.449 302.785C178.303 305.867 183.211 307.008 183.211 307.008L182.298 318.992C187.892 322.758 191.887 323.329 191.887 323.329Z" fill="#E08F82"/>
<path id="Vector_39" d="M142.346 117.097L160.381 128.738L174.308 124.059L188.577 127.14L206.384 70.7603L218.37 127.483L230.355 106.939L241.999 128.51L253.528 122.917L258.893 127.711L276.13 119.493L282.294 123.716H303.982" stroke="#FFA401" stroke-width="4" stroke-miterlimit="10" stroke-linecap="round" stroke-linejoin="round"/>
<path id="Vector_40" d="M673.829 118.695H646.889V169.368H673.829V118.695Z" fill="#93C9F9"/>
<path id="Vector_41" d="M673.829 136.499H646.889V169.254H673.829V136.499Z" fill="#0098FF"/>
<path id="Vector_42" d="M708.074 130.792H681.134V169.254H708.074V130.792Z" fill="#93C9F9"/>
<path id="Vector_43" d="M708.074 152.819H681.134V169.254H708.074V152.819Z" fill="#0098FF"/>
<path id="Vector_44" d="M742.319 108.081H715.379V169.254H742.319V108.081Z" fill="#93C9F9"/>
<path id="Vector_45" d="M742.319 134.787H715.379V169.254H742.319V134.787Z" fill="#0098FF"/>
<path id="Vector_46" d="M776.564 107.624H749.625V169.254H776.564V107.624Z" fill="#0098FF"/>
<path id="Vector_47" d="M73.1709 232.367H53.0804C51.0257 232.367 49.3135 230.655 49.3135 228.601C49.3135 226.547 51.0257 224.835 53.0804 224.835H73.1709C75.2256 224.835 76.9378 226.547 76.9378 228.601C76.9378 230.655 75.2256 232.367 73.1709 232.367Z" fill="#A4BCFF"/>
<path id="Vector_48" d="M102.85 245.492H52.8519C50.7972 245.492 49.085 243.78 49.085 241.726C49.085 239.672 50.7972 237.96 52.8519 237.96H102.736C104.79 237.96 106.502 239.672 106.502 241.726C106.617 243.78 104.904 245.492 102.85 245.492Z" fill="#5174F2"/>
<path id="Vector_49" d="M205.242 159.553H144.058C142.003 159.553 140.291 157.841 140.291 155.787C140.291 153.732 142.003 152.02 144.058 152.02H205.242C207.297 152.02 209.009 153.732 209.009 155.787C209.009 157.841 207.297 159.553 205.242 159.553Z" fill="#BDC3D3"/>
<path id="Vector_50" d="M84.4715 290.916L52.9661 307.122C50.4548 302.329 49.085 296.85 49.085 290.916C49.085 284.41 50.9114 278.247 53.9934 272.997L84.4715 290.916Z" fill="white"/>
<path id="Vector_51" d="M84.4712 290.916L79.3344 325.953C67.8052 324.242 57.9883 316.937 52.8516 306.894L84.4712 290.916Z" fill="#F96700"/>
<path id="Vector_52" d="M119.858 290.916C119.858 310.432 103.991 326.296 84.4717 326.296C82.7595 326.296 81.0472 326.182 79.335 325.954L84.4717 290.916L114.722 272.541C117.918 277.905 119.858 284.182 119.858 290.916Z" fill="#FFA200"/>
<path id="Vector_53" d="M115.292 273.568L84.4717 290.916V255.536C97.7131 255.536 109.242 262.84 115.292 273.568Z" fill="#0187F0"/>
<path id="Vector_54" d="M84.4718 290.916L53.5371 273.682C59.5871 262.954 71.3445 255.65 84.4718 255.536V290.916Z" fill="#25B350"/>
<path id="Vector_55" d="M579.312 283.497H352.153C346.56 283.497 341.994 278.932 341.994 273.34V132.961C341.994 127.368 346.56 122.803 352.153 122.803H579.312C584.906 122.803 589.472 127.368 589.472 132.961V273.454C589.472 279.046 584.906 283.497 579.312 283.497Z" fill="#DFE6F7"/>
<path id="Vector_56" d="M386.856 144.374H358.66C355.921 144.374 353.752 142.205 353.752 139.466C353.752 136.727 355.921 134.559 358.66 134.559H386.856C389.595 134.559 391.764 136.727 391.764 139.466C391.764 142.091 389.595 144.374 386.856 144.374Z" fill="#656D8B"/>
<path id="Vector_57" d="M568.126 144.374H507.512C504.772 144.374 502.604 142.205 502.604 139.466C502.604 136.727 504.772 134.559 507.512 134.559H568.126C570.865 134.559 573.034 136.727 573.034 139.466C573.034 142.091 570.751 144.374 568.126 144.374Z" fill="#BDC4CF"/>
<path id="Vector_58" d="M690.951 98.2655H644.834C642.78 98.2655 641.182 96.6677 641.182 94.6133C641.182 92.559 642.78 90.9612 644.834 90.9612H690.951C693.006 90.9612 694.604 92.559 694.604 94.6133C694.604 96.6677 692.892 98.2655 690.951 98.2655Z" fill="#5174F2"/>
<path id="Vector_59" d="M664.583 86.5102H644.492C642.437 86.5102 640.839 84.9124 640.839 82.8581C640.839 80.8037 642.437 79.2059 644.492 79.2059H664.583C666.637 79.2059 668.235 80.8037 668.235 82.8581C668.235 84.9124 666.637 86.5102 664.583 86.5102Z" fill="#A4BCFF"/>
<path id="Vector_60" d="M682.39 529.332C682.39 529.332 683.417 535.837 682.39 536.408C681.363 536.979 696.773 536.408 697.344 536.294C697.914 536.18 697.572 533.326 697.572 533.326L697.8 527.848L682.39 529.332Z" fill="#F8BAC1"/>
<path id="Vector_61" d="M628.854 527.962L627.94 535.381L643.693 535.609L643.122 528.191L628.854 527.962Z" fill="#F8BAC1"/>
<path id="Vector_62" d="M543.127 206.802C550.692 206.802 556.825 200.671 556.825 193.107C556.825 185.543 550.692 179.411 543.127 179.411C535.562 179.411 529.429 185.543 529.429 193.107C529.429 200.671 535.562 206.802 543.127 206.802Z" fill="#D2F0DB"/>
<path id="Vector_63" d="M543.127 202.58C548.359 202.58 552.601 198.339 552.601 193.107C552.601 187.875 548.359 183.634 543.127 183.634C537.894 183.634 533.652 187.875 533.652 193.107C533.652 198.339 537.894 202.58 543.127 202.58Z" fill="#A1DFB6"/>
<path id="Vector_64" d="M543.127 198.471C546.09 198.471 548.492 196.069 548.492 193.107C548.492 190.144 546.09 187.743 543.127 187.743C540.164 187.743 537.762 190.144 537.762 193.107C537.762 196.069 540.164 198.471 543.127 198.471Z" fill="#26B54A"/>
<path id="Vector_65" d="M361.742 219.471C361.742 219.471 366.536 188.428 391.307 190.482C416.078 192.422 428.862 226.889 445.072 224.378C461.281 221.868 470.071 193.107 480.344 195.618C490.618 198.129 488.905 208.743 494.271 207.259C499.636 205.889 512.763 174.504 518.699 174.504C524.634 174.504 528.401 186.145 534.68 189.569C540.958 192.993 543.013 193.335 545.524 190.824" stroke="#2BAC52" stroke-width="2" stroke-miterlimit="10" stroke-linecap="round"/>
<path id="Vector_66" d="M700.198 544.511V548.163L652.939 548.392C652.711 547.022 652.711 545.767 653.054 544.739C653.054 544.739 653.054 544.739 653.054 544.625C654.309 540.288 659.446 537.892 663.327 537.093C665.039 536.75 666.637 536.75 667.322 537.093C670.176 538.234 682.504 534.011 682.504 534.011C691.75 538.006 697.344 533.327 697.344 533.327C701.111 534.582 700.198 544.511 700.198 544.511Z" fill="#92CCFF"/>
<path id="Vector_67" d="M700.198 544.739V548.163L652.939 548.392C652.711 547.022 652.711 545.767 653.054 544.739H700.198Z" fill="#111F72"/>
<path id="Vector_68" d="M663.669 544.625H653.167C654.423 540.288 659.56 537.892 663.441 537.093L663.669 544.625Z" fill="#E1E6F9"/>
<path id="Vector_69" d="M646.09 542V545.653L598.832 545.881C598.604 544.511 598.604 543.256 598.946 542.229C598.946 542.229 598.946 542.229 598.946 542.115C600.202 537.778 605.339 535.381 609.22 534.582C610.932 534.24 612.53 534.24 613.215 534.582C616.069 535.723 628.397 531.5 628.397 531.5C637.643 535.495 643.236 530.816 643.236 530.816C647.003 532.071 646.09 542 646.09 542Z" fill="#92CCFF"/>
<path id="Vector_70" d="M646.09 542.229V545.652L598.832 545.881C598.604 544.511 598.604 543.256 598.946 542.229H646.09Z" fill="#111F72"/>
<path id="Vector_71" d="M609.562 542.229L598.946 542.115C600.202 537.778 605.339 535.381 609.22 534.582L609.562 542.229Z" fill="#E1E6F9"/>
<path id="Vector_72" d="M693.691 322.073C693.691 322.073 697.115 335.312 695.86 355.056C694.604 374.801 690.951 425.702 691.18 431.295C691.408 436.887 697.23 486.533 697.23 489.158C697.23 491.783 700.654 529.446 700.654 529.446C700.654 529.446 678.851 532.185 677.139 529.446C675.427 526.707 665.952 431.751 665.952 431.751L661.615 358.024L652.14 454.007C652.14 454.007 649.743 528.305 646.547 528.99C643.351 529.674 628.169 530.017 626.571 528.761C625.087 527.506 634.447 327.894 634.447 327.894C634.447 327.894 666.752 339.877 693.691 322.073Z" fill="#22B6FD"/>
<path id="Vector_73" d="M584.449 184.091C586.047 177.585 592.782 180.895 592.782 180.895C592.782 180.895 587.189 175.189 590.043 173.134C592.782 171.08 598.604 172.335 598.604 172.335C598.604 172.335 598.604 167.77 600.773 167.085C602.942 166.401 603.969 169.482 605.795 169.482C607.622 169.482 624.174 161.721 630.68 176.672C637.187 191.623 627.027 199.841 627.027 199.841L595.294 190.938C595.522 190.824 582.509 192.08 584.449 184.091Z" fill="#04203F"/>
<path id="Vector_74" d="M651.683 222.666C647.802 235.335 623.374 240.014 623.374 240.014C623.374 240.014 608.192 237.617 612.644 233.052C614.128 231.569 614.699 229.971 614.927 228.487C615.27 225.291 613.786 222.666 613.786 222.666C612.872 222.781 611.959 222.781 611.046 222.666C591.526 221.411 596.663 182.607 596.663 182.607C601.8 181.466 602.485 178.384 602.485 178.384C603.17 182.835 612.187 179.754 614.813 178.384C617.438 177.015 619.493 180.439 619.493 180.439C619.493 180.439 616.069 190.71 619.036 190.596C622.119 190.482 624.972 194.705 624.972 194.705C626.456 192.765 635.36 191.509 635.817 198.357C636.273 205.205 630.109 205.433 630.109 205.433C631.479 216.047 651.683 222.666 651.683 222.666Z" fill="#FABBC3"/>
<path id="Vector_75" d="M624.287 214.906C624.059 224.036 618.808 227.346 614.927 228.487C615.269 225.291 613.786 222.666 613.786 222.666C612.872 222.781 611.959 222.781 611.046 222.666C611.731 222.21 612.644 222.096 613.671 222.096C619.379 222.552 624.287 214.906 624.287 214.906Z" fill="#FF8388"/>
<path id="Vector_76" d="M608.307 189.797C608.307 189.797 610.818 187.857 613.558 191.509" stroke="black" stroke-miterlimit="10" stroke-linecap="round"/>
<path id="Vector_77" d="M597.919 192.65C597.919 192.65 599.175 188.884 602.371 190.14" stroke="black" stroke-miterlimit="10" stroke-linecap="round"/>
<path id="Vector_78" d="M603.855 192.308C603.855 192.308 604.882 198.129 603.512 202.237C602.143 206.346 603.284 208.058 608.421 206.917" stroke="#FF8388" stroke-miterlimit="10"/>
<path id="Vector_79" d="M610.475 201.21C611.295 201.21 611.959 200.188 611.959 198.927C611.959 197.667 611.295 196.645 610.475 196.645C609.656 196.645 608.991 197.667 608.991 198.927C608.991 200.188 609.656 201.21 610.475 201.21Z" fill="black"/>
<path id="Vector_80" d="M600.43 201.781C601.25 201.781 601.914 200.759 601.914 199.498C601.914 198.238 601.25 197.216 600.43 197.216C599.611 197.216 598.946 198.238 598.946 199.498C598.946 200.759 599.611 201.781 600.43 201.781Z" fill="black"/>
<path id="Vector_81" d="M624.973 202.351C624.973 202.351 627.027 196.417 633.192 197.672" stroke="#FF8388" stroke-miterlimit="10" stroke-linecap="round"/>
<path id="Vector_82" d="M630.908 202.123C630.908 202.123 627.712 202.123 627.712 198.928" stroke="#FF8388" stroke-miterlimit="10" stroke-linecap="round"/>
<path id="Vector_83" d="M603.74 210.112C603.74 210.112 609.562 210.911 612.302 209.199C615.041 207.487 612.758 213.536 608.192 214.335C603.626 215.248 603.74 210.112 603.74 210.112Z" fill="white"/>
<path id="Vector_84" d="M589.814 273.34C589.814 273.34 577.372 319.676 577.372 321.16C577.372 322.53 570.18 344.328 569.496 350.948C568.696 357.453 559.564 359.622 559.564 362.475C559.564 365.214 572.806 361.334 574.861 358.48C576.801 355.741 579.427 363.046 580.568 363.046C581.71 363.046 580.226 356.54 577.943 353.345C575.774 350.149 585.819 336.453 590.385 326.981C594.951 317.508 608.877 278.019 608.877 278.019L589.814 273.34Z" fill="#F7BCC2"/>
<path id="Vector_85" d="M587.646 275.851C587.646 275.851 593.467 258.845 593.467 256.449C593.467 254.052 599.631 235.449 615.156 232.938C615.156 232.938 634.333 236.59 649.173 222.21L651.684 222.666C651.684 222.666 665.953 225.862 668.35 226.319C670.747 226.775 686.043 230.085 687.641 251.313C689.239 272.541 693.234 297.307 693.805 302.671C694.376 308.035 698.371 323.785 694.833 326.182C691.18 328.578 650.314 343.872 632.849 330.176C632.849 330.176 630.338 303.927 628.968 299.932C627.598 295.937 616.069 274.595 614.128 274.481C612.188 274.367 610.932 279.845 610.932 279.845L587.646 275.851Z" fill="#4E5986"/>
<path id="Vector_86" d="M659.788 270.144C659.788 270.144 662.756 249.144 664.582 247.09C666.409 245.036 655.108 261.699 654.309 272.427C653.51 283.155 656.021 288.862 654.651 293.541C653.167 298.22 650.313 312.144 650.313 312.144C650.313 312.144 663.212 291.829 659.788 270.144Z" fill="#414C6D"/>
<path id="Vector_87" d="M659.788 270.144C659.788 270.144 659.446 292.514 656.82 296.28C654.195 300.046 633.99 338.051 632.05 339.877C630.109 341.703 618.58 344.442 614.242 351.404C609.904 358.366 618.352 365.899 618.352 365.899C618.352 365.899 628.625 360.306 631.479 354.029C631.479 354.029 663.213 320.703 668.121 315.339C673.03 309.975 682.39 281.443 682.39 277.334C682.39 273.226 678.395 270.943 659.788 270.144Z" fill="#F8BAC1"/>
<path id="Vector_88" d="M324.758 380.621V548.506H338.57V380.964C338.684 380.964 325.329 381.078 324.758 380.621Z" fill="#BDC3D1"/>
<path id="Vector_89" d="M552.715 380.621V548.506H566.527V380.964C566.527 380.964 553.172 381.078 552.715 380.621Z" fill="#BDC3D1"/>
<path id="Vector_90" d="M654.081 373.089V368.067H613.215V372.975C613.215 372.975 654.081 372.746 654.081 373.089Z" fill="#A5B3E1"/>
<path id="Vector_91" d="M543.241 366.355V372.975H615.727V366.926C615.727 366.926 543.698 366.698 543.241 366.355Z" fill="#505A73"/>
<path id="Vector_92" d="M524.863 312.258H609.562L621.091 368.067L536.506 367.953L524.863 312.258Z" fill="#616D86"/>
<path id="Vector_93" d="M358.09 318.079C358.09 318.079 357.861 325.839 357.861 326.752C357.861 327.78 354.779 332.459 354.779 332.459L361.742 332.573C361.742 332.573 364.368 334.057 361.514 335.997C358.66 337.937 355.921 341.475 357.861 343.872C359.802 346.269 373.386 337.024 373.386 336.568C373.386 336.111 376.468 328.236 375.326 325.611C374.185 322.986 368.706 315.91 368.706 315.91L358.09 318.079Z" fill="#C35E2F"/>
<path id="Vector_94" d="M518.699 217.531C518.014 217.074 518.014 216.161 518.585 215.704C520.411 214.107 523.607 210.683 523.836 208.058C524.178 204.292 523.037 202.808 526.119 201.096C528.744 199.726 539.817 192.879 543.241 190.71C543.812 190.368 544.611 190.596 544.953 191.167C545.182 191.623 545.068 192.194 544.725 192.536L538.447 198.927C537.876 199.498 537.99 200.525 538.789 200.868C540.502 201.667 542.899 203.15 542.785 204.862C542.67 207.487 542.899 214.221 540.844 214.221C538.789 214.221 538.903 211.596 538.333 211.824C537.648 212.052 534.908 216.846 532.397 216.846C530.456 216.846 527.603 219.927 526.233 221.411C525.89 221.867 525.205 221.982 524.635 221.639L518.699 217.531Z" fill="#C66231"/>
<path id="Vector_95" d="M464.592 522.941C464.592 522.941 465.277 531.615 468.701 533.098C472.24 534.582 489.819 539.718 490.161 542.571C490.504 545.424 490.846 548.734 490.846 548.734H442.903C442.903 548.734 436.625 546.223 439.593 535.609C442.561 524.995 442.789 522.827 442.789 522.827L464.592 522.941Z" fill="black"/>
<path id="Vector_96" d="M380.12 523.511C380.12 523.511 377.609 533.326 376.924 534.125C376.239 534.924 374.641 539.604 376.582 541.316C378.522 543.027 416.877 542.799 416.877 542.799C416.877 542.799 427.721 542.799 427.379 540.288C427.036 537.778 418.931 533.326 414.251 532.984C409.571 532.642 401.923 528.191 401.581 524.539C401.238 520.886 380.12 523.511 380.12 523.511Z" fill="#000201"/>
<path id="Vector_97" d="M377.952 524.31C377.952 524.31 401.809 528.99 404.206 523.74C406.489 518.604 412.653 418.969 412.653 418.969L416.306 355.057L434.342 421.594L439.364 524.767L466.989 523.511L459.797 420.224C459.797 420.224 449.752 321.617 447.926 313.057L385.714 312.03C385.714 312.03 380.577 323.329 381.604 345.698C382.632 368.067 386.97 410.638 386.285 415.545C385.486 420.453 377.952 524.31 377.952 524.31Z" fill="#1F2C7A"/>
<path id="Vector_98" d="M249.532 372.861V386.442L662.185 386.556L662.071 372.975C662.071 372.975 249.532 372.29 249.532 372.861Z" fill="#FFA002"/>
<path id="Vector_99" d="M402.608 343.415C402.608 343.415 412.311 351.633 415.849 351.975" stroke="black" stroke-miterlimit="10"/>
<path id="Vector_100" d="M451.35 175.988C451.35 175.988 450.323 177.814 450.779 179.982C451.236 182.265 452.834 194.819 441.076 193.335L445.3 202.237L438.337 201.667L411.854 199.27C411.854 199.27 418.703 191.966 418.246 183.52C417.79 175.074 431.031 146.885 443.131 147.341C443.131 147.341 448.61 153.732 448.839 158.982C449.067 164.232 452.149 169.71 452.606 170.623C452.834 171.536 455.688 174.504 451.35 175.988Z" fill="#C66231"/>
<path id="Vector_101" d="M445.3 202.237L438.337 201.667L433.999 200.069L432.059 185.574C432.059 185.574 430.575 177.699 435.597 186.602C435.597 186.602 437.538 190.71 441.191 193.335L445.3 202.237Z" fill="#963E18"/>
<path id="Vector_102" d="M443.93 160.466C443.93 160.466 444.387 156.015 448.268 156.586" stroke="black" stroke-miterlimit="10" stroke-linecap="round"/>
<path id="Vector_103" d="M448.286 167.325C448.705 167.187 448.742 166.153 448.368 165.015C447.995 163.878 447.352 163.067 446.933 163.204C446.513 163.342 446.476 164.376 446.85 165.514C447.224 166.652 447.867 167.463 448.286 167.325Z" fill="black"/>
<path id="Vector_104" d="M527.489 221.868C527.489 221.868 497.239 267.063 494.043 270.258C490.732 273.34 485.71 275.622 480.915 270.829C476.121 266.036 462.081 249.715 462.081 249.715C462.081 249.715 459.113 247.204 458.542 255.764C457.971 264.438 453.519 290.231 452.72 293.427C451.921 296.508 451.921 313.97 451.921 314.655C451.921 315.339 448.383 314.997 444.73 316.481C441.191 317.964 405.69 327.894 381.833 314.198C381.833 314.198 389.024 294.111 387.54 287.834C386.057 281.557 380.121 259.758 380.121 259.758L367.336 270.943C367.336 270.943 366.765 275.737 367.793 281.9C368.82 288.177 370.646 316.367 370.646 316.367C370.646 316.367 359.802 320.704 356.72 319.22C356.72 319.22 349.985 290.231 348.045 285.78C346.104 281.329 341.995 269.231 347.588 260.443C353.181 251.655 373.614 218.786 373.614 218.786C373.614 218.786 383.089 203.493 404.092 200.754C404.092 200.754 406.489 200.754 409.457 198.928C411.512 197.672 413.795 195.618 415.85 192.08C415.85 192.08 437.082 190.596 442.675 194.705L446.1 201.553C446.1 201.553 455.916 207.487 458.77 207.601C461.624 207.715 469.957 208.4 477.034 220.726C484.226 233.052 489.248 239.443 489.248 239.443L518.242 213.993L527.489 221.868Z" fill="#2847E0"/>
<path id="Vector_105" d="M446.213 201.781L409.685 199.156C411.74 197.9 414.023 195.846 416.077 192.308C416.077 192.308 437.309 190.824 442.903 194.933L446.213 201.781Z" fill="white"/>
<path id="Vector_106" d="M441.99 143.803C441.191 142.776 431.488 138.211 422.813 142.205C414.023 146.2 410.484 147.455 407.516 153.846C400.896 168.113 407.859 184.433 416.42 184.775C424.981 185.118 431.488 184.547 433.429 171.651C433.657 168.683 435.826 164.004 438.908 166.743C441.99 169.368 440.848 168.569 440.848 168.569L442.561 166.743C442.561 166.743 440.049 163.662 440.848 161.493C441.647 159.211 441.533 154.303 441.077 153.048C440.62 151.792 444.387 151.906 445.186 147.798" fill="#331531"/>
<g id="Group_2">
<path id="Vector_107" d="M441.191 179.64C439.821 179.64 438.68 179.297 437.652 178.612C436.054 177.471 434.913 175.645 434.57 173.248C433.771 168.455 436.282 167.428 436.397 167.314C436.739 167.2 436.967 167.314 437.082 167.656C437.196 167.998 437.082 168.227 436.739 168.341C436.625 168.341 434.913 169.14 435.598 173.02C435.94 175.189 436.853 176.786 438.223 177.585C439.479 178.384 441.077 178.613 442.903 178.156C443.246 178.042 443.474 178.27 443.588 178.612C443.702 178.955 443.474 179.183 443.132 179.297C442.561 179.526 441.876 179.64 441.191 179.64Z" fill="#963E18"/>
</g>
<g id="Group_3">
<path id="Vector_108" d="M443.359 175.645C443.131 175.645 442.789 175.417 442.789 175.189C442.104 170.852 437.538 170.509 437.31 170.509C436.967 170.509 436.739 170.167 436.739 169.939C436.739 169.71 437.081 169.368 437.31 169.368C437.31 169.368 443.017 169.825 443.816 175.074C443.93 175.303 443.702 175.645 443.359 175.645Z" fill="#963E18"/>
</g>
<g id="Group_4">
<path id="Vector_109" d="M440.049 176.102C439.935 176.102 439.707 175.987 439.593 175.873C439.364 175.645 439.479 175.303 439.707 175.074C440.734 174.161 440.392 171.993 440.163 171.308C440.049 170.966 440.278 170.738 440.506 170.623C440.848 170.509 441.077 170.738 441.191 170.966C441.191 171.08 442.218 174.504 440.392 175.987C440.392 176.102 440.163 176.102 440.049 176.102Z" fill="#963E18"/>
</g>
</g>
</g>
</svg>
